<svg width="12" height="10" viewBox="5 0 2 10" fill="none" xmlns="http://www.w3.org/2000/svg">
<path d="M9.88021 0.921387C9.54043 0.921387 9.2211 1.05378 8.98076 1.29416L4.27415 6.00844L3.01971 4.75411C2.77954 4.51389 2.46021 4.38155 2.12054 4.38155C1.78082 4.38155 1.46149 4.51389 1.22127 4.75405C0.981099 4.99422 0.848877 5.31355 0.848877 5.65322C0.848877 5.99289 0.981099 6.31222 1.22127 6.55233L3.37515 8.70622C3.61532 8.94644 3.93465 9.07878 4.27438 9.07878C4.61393 9.07878 4.93338 8.94639 5.17382 8.706L10.7794 3.09233C11.2752 2.59644 11.2751 1.78966 10.7794 1.29378C10.5393 1.05366 10.2199 0.921387 9.88021 0.921387Z" fill="#0F89FF"/>
</svg>
